<svg width="304" height="264" viewBox="0 0 304 264" fill="none" xmlns="http://www.w3.org/2000/svg">
<mask id="path-1-inside-1_135_12" fill="white">
<path fill-rule="evenodd" clip-rule="evenodd" d="M252.973 107.209C252.124 106.918 251.557 106.108 251.583 105.211C251.619 103.98 251.638 102.742 251.638 101.5C251.638 45.4431 214.701 0 169.138 0C135.79 0 107.064 24.3421 94.0573 59.3717C93.6337 60.5126 92.3089 61.0422 91.2088 60.5216C71.1035 51.0076 46.8559 52.0367 27.4855 65.3658C-1.70165 85.4501 -8.76252 125.855 11.7146 155.613C22.1272 170.745 37.6553 180.211 54.2417 183.219C55.3168 183.414 56.0653 184.413 55.9391 185.499C52.1019 218.493 64.0191 248.15 88.4832 259.196C115.677 271.474 149.867 256.916 172.406 226.091C173.017 225.255 174.16 225.002 175.066 225.502C188.222 232.762 204.075 237 221.138 237C266.701 237 303.638 206.779 303.638 169.5C303.638 141.453 282.731 117.402 252.973 107.209Z"/>
</mask>
<g filter="url(#filter0_i_135_12)">
<path fill-rule="evenodd" clip-rule="evenodd" d="M252.973 107.209C252.124 106.918 251.557 106.108 251.583 105.211C251.619 103.98 251.638 102.742 251.638 101.5C251.638 45.4431 214.701 0 169.138 0C135.79 0 107.064 24.3421 94.0573 59.3717C93.6337 60.5126 92.3089 61.0422 91.2088 60.5216C71.1035 51.0076 46.8559 52.0367 27.4855 65.3658C-1.70165 85.4501 -8.76252 125.855 11.7146 155.613C22.1272 170.745 37.6553 180.211 54.2417 183.219C55.3168 183.414 56.0653 184.413 55.9391 185.499C52.1019 218.493 64.0191 248.15 88.4832 259.196C115.677 271.474 149.867 256.916 172.406 226.091C173.017 225.255 174.16 225.002 175.066 225.502C188.222 232.762 204.075 237 221.138 237C266.701 237 303.638 206.779 303.638 169.5C303.638 141.453 282.731 117.402 252.973 107.209Z" fill="#FDC5D8"/>
</g>
<path d="M27.4855 65.3658L28.0524 66.1896L27.4855 65.3658ZM11.7146 155.613L10.8908 156.18H10.8908L11.7146 155.613ZM88.4832 259.196L88.0717 260.107L88.4832 259.196ZM172.406 226.091L173.213 226.681L172.406 226.091ZM175.066 225.502L174.583 226.378L175.066 225.502ZM94.0573 59.3717L93.1199 59.0236L94.0573 59.3717ZM91.2088 60.5216L90.781 61.4255L91.2088 60.5216ZM54.2417 183.219L54.4201 182.235L54.2417 183.219ZM55.9391 185.499L54.9458 185.383L55.9391 185.499ZM251.583 105.211L252.583 105.24L251.583 105.211ZM252.973 107.209L253.297 106.263L252.973 107.209ZM250.638 101.5C250.638 102.733 250.62 103.96 250.584 105.182L252.583 105.24C252.619 103.999 252.638 102.752 252.638 101.5H250.638ZM169.138 1C213.965 1 250.638 45.7917 250.638 101.5H252.638C252.638 45.0945 215.437 -1 169.138 -1V1ZM94.9948 59.7198C107.898 24.9685 136.318 1 169.138 1V-1C135.263 -1 106.23 23.7157 93.1199 59.0236L94.9948 59.7198ZM28.0524 66.1896C47.112 53.0743 70.9786 52.0548 90.781 61.4255L91.6365 59.6177C71.2284 49.9604 46.5997 50.9991 26.9186 64.542L28.0524 66.1896ZM12.5384 155.047C-7.63604 125.728 -0.664829 85.9505 28.0524 66.1896L26.9186 64.542C-2.73847 84.9496 -9.889 125.982 10.8908 156.18L12.5384 155.047ZM54.4201 182.235C38.088 179.273 22.7956 169.953 12.5384 155.047L10.8908 156.18C21.4589 171.538 37.2226 181.148 54.0633 184.202L54.4201 182.235ZM88.8947 258.285C64.9792 247.486 53.1231 218.368 56.9324 185.614L54.9458 185.383C51.0806 218.618 63.059 248.814 88.0717 260.107L88.8947 258.285ZM171.598 225.5C149.202 256.132 115.476 270.286 88.8947 258.285L88.0717 260.107C115.877 272.662 150.532 257.701 173.213 226.681L171.598 225.5ZM221.138 236C204.239 236 188.554 231.803 175.549 224.627L174.583 226.378C187.891 233.721 203.911 238 221.138 238V236ZM302.638 169.5C302.638 206.049 266.346 236 221.138 236V238C267.056 238 304.638 207.51 304.638 169.5H302.638ZM252.649 108.155C282.119 118.249 302.638 141.992 302.638 169.5H304.638C304.638 140.914 283.342 116.554 253.297 106.263L252.649 108.155ZM173.213 226.681C173.527 226.252 174.117 226.121 174.583 226.378L175.549 224.627C174.202 223.884 172.506 224.258 171.598 225.5L173.213 226.681ZM93.1199 59.0236C92.9031 59.6074 92.2138 59.8909 91.6365 59.6177L90.781 61.4255C92.4039 62.1935 94.3643 61.4178 94.9948 59.7198L93.1199 59.0236ZM54.0633 184.202C54.6245 184.304 55.0104 184.827 54.9458 185.383L56.9324 185.614C57.1202 184 56.0091 182.523 54.4201 182.235L54.0633 184.202ZM250.584 105.182C250.545 106.521 251.389 107.724 252.649 108.155L253.297 106.263C252.858 106.113 252.57 105.695 252.583 105.24L250.584 105.182Z" fill="#FF0057" mask="url(#path-1-inside-1_135_12)"/>
<g filter="url(#filter1_i_135_12)">
<path fill-rule="evenodd" clip-rule="evenodd" d="M180.96 125.474C180.538 125.323 180.256 124.919 180.265 124.47C180.27 124.23 180.272 123.99 180.272 123.748C180.272 107.871 169.81 95 156.905 95C147.609 95 139.581 101.679 135.818 111.349C135.597 111.916 134.935 112.179 134.379 111.934C128.776 109.465 122.126 109.838 116.785 113.514C108.518 119.202 106.518 130.646 112.318 139.075C115.179 143.233 119.404 145.88 123.944 146.812C124.479 146.922 124.853 147.42 124.798 147.963C123.86 157.137 127.237 165.332 134.061 168.413C141.669 171.848 151.211 167.867 157.596 159.354C157.906 158.94 158.476 158.816 158.933 159.058C162.589 160.999 166.95 162.126 171.633 162.126C184.538 162.126 195 153.567 195 143.008C195 135.162 189.223 128.42 180.96 125.474Z" fill="#FFC86E"/>
</g>
<defs>
<filter id="filter0_i_135_12" x="0" y="0" width="307.637" height="267.545" filterUnits="userSpaceOnUse" color-interpolation-filters="sRGB">
<feFlood flood-opacity="0" result="BackgroundImageFix"/>
<feBlend mode="normal" in="SourceGraphic" in2="BackgroundImageFix" result="shape"/>
<feColorMatrix in="SourceAlpha" type="matrix" values="0 0 0 0 0 0 0 0 0 0 0 0 0 0 0 0 0 0 127 0" result="hardAlpha"/>
<feOffset dx="4" dy="4"/>
<feGaussianBlur stdDeviation="15"/>
<feComposite in2="hardAlpha" operator="arithmetic" k2="-1" k3="1"/>
<feColorMatrix type="matrix" values="0 0 0 0 1 0 0 0 0 0.172094 0 0 0 0 0.452991 0 0 0 1 0"/>
<feBlend mode="normal" in2="shape" result="effect1_innerShadow_135_12"/>
</filter>
<filter id="filter1_i_135_12" x="109" y="95" width="90" height="78.6445" filterUnits="userSpaceOnUse" color-interpolation-filters="sRGB">
<feFlood flood-opacity="0" result="BackgroundImageFix"/>
<feBlend mode="normal" in="SourceGraphic" in2="BackgroundImageFix" result="shape"/>
<feColorMatrix in="SourceAlpha" type="matrix" values="0 0 0 0 0 0 0 0 0 0 0 0 0 0 0 0 0 0 127 0" result="hardAlpha"/>
<feOffset dx="4" dy="4"/>
<feGaussianBlur stdDeviation="15"/>
<feComposite in2="hardAlpha" operator="arithmetic" k2="-1" k3="1"/>
<feColorMatrix type="matrix" values="0 0 0 0 1 0 0 0 0 0.710233 0 0 0 0 0.172094 0 0 0 1 0"/>
<feBlend mode="normal" in2="shape" result="effect1_innerShadow_135_12"/>
</filter>
</defs>
</svg>
