<svg width="338" height="367" viewBox="0 0 338 367" fill="none" xmlns="http://www.w3.org/2000/svg">
<path d="M106.892 11.1485C109.735 10.3799 111.417 7.45165 110.649 4.60819C109.88 1.76475 106.952 0.0828051 104.108 0.851481C101.265 1.62016 99.5828 4.54837 100.351 7.39181C101.12 10.2353 104.048 11.9172 106.892 11.1485ZM162.965 214.741L106.465 5.73904L104.535 6.26096L161.035 215.263L162.965 214.741Z" fill="#FFB52C"/>
<path d="M141.533 11.3091C144.464 11.0146 146.601 8.40002 146.307 5.46925C146.012 2.53848 143.398 0.401364 140.467 0.695842C137.536 0.990321 135.399 3.60488 135.693 6.53565C135.988 9.46642 138.602 11.6035 141.533 11.3091ZM162.995 214.902L141.995 5.90247L140.005 6.10243L161.005 215.102L162.995 214.902Z" fill="#FFB52C"/>
<path d="M188.326 12.2931C191.248 12.6652 193.918 10.5982 194.291 7.67626C194.663 4.75435 192.596 2.08399 189.674 1.71186C186.752 1.33973 184.082 3.40674 183.709 6.32865C183.337 9.25057 185.404 11.9209 188.326 12.2931ZM162.992 219.129L189.992 7.12879L188.008 6.87611L161.008 218.876L162.992 219.129Z" fill="#FFB52C"/>
<mask id="path-4-inside-1_135_27" fill="white">
<path fill-rule="evenodd" clip-rule="evenodd" d="M324.412 279.586C324.422 279.495 324.445 279.407 324.479 279.323C332.793 258.859 338 229.552 338 197.002C338 135.147 319.196 85.0024 296 85.0024C284.737 85.0024 274.509 96.8251 266.967 116.071C266.627 116.937 265.373 116.937 265.033 116.071C257.491 96.8251 247.263 85.0024 236 85.0024C222.9 85.0024 211.202 100.995 203.499 126.057C203.203 127.02 201.797 127.02 201.501 126.057C193.798 100.995 182.099 85.0024 169 85.0024C156.979 85.0024 146.137 98.4704 138.481 120.057C138.159 120.964 136.841 120.964 136.519 120.057C128.863 98.4704 118.021 85.0024 106 85.0024C93.7169 85.0024 82.6654 99.0632 74.9854 121.478C74.6697 122.399 73.3303 122.399 73.0146 121.478C65.3346 99.0632 54.283 85.0024 42 85.0024C18.804 85.0024 0 135.147 0 197.002C0 245.924 11.7621 287.519 28.1564 302.776C28.2007 302.817 28.2398 302.861 28.2761 302.909C52.1893 334.809 99.0459 358.689 153.791 365.155C234.755 374.716 318.004 334.695 324.412 279.586Z"/>
</mask>
<g filter="url(#filter0_i_135_27)">
<path fill-rule="evenodd" clip-rule="evenodd" d="M324.412 279.586C324.422 279.495 324.445 279.407 324.479 279.323C332.793 258.859 338 229.552 338 197.002C338 135.147 319.196 85.0024 296 85.0024C284.737 85.0024 274.509 96.8251 266.967 116.071C266.627 116.937 265.373 116.937 265.033 116.071C257.491 96.8251 247.263 85.0024 236 85.0024C222.9 85.0024 211.202 100.995 203.499 126.057C203.203 127.02 201.797 127.02 201.501 126.057C193.798 100.995 182.099 85.0024 169 85.0024C156.979 85.0024 146.137 98.4704 138.481 120.057C138.159 120.964 136.841 120.964 136.519 120.057C128.863 98.4704 118.021 85.0024 106 85.0024C93.7169 85.0024 82.6654 99.0632 74.9854 121.478C74.6697 122.399 73.3303 122.399 73.0146 121.478C65.3346 99.0632 54.283 85.0024 42 85.0024C18.804 85.0024 0 135.147 0 197.002C0 245.924 11.7621 287.519 28.1564 302.776C28.2007 302.817 28.2398 302.861 28.2761 302.909C52.1893 334.809 99.0459 358.689 153.791 365.155C234.755 374.716 318.004 334.695 324.412 279.586Z" fill="#FDC5D8"/>
</g>
<path d="M153.791 365.155L153.908 364.161L153.791 365.155ZM28.1564 302.776L28.8376 302.044L28.1564 302.776ZM28.2761 302.909L29.0763 302.309L28.2761 302.909ZM74.9854 121.478L75.9314 121.802L74.9854 121.478ZM73.0146 121.478L72.0686 121.802L73.0146 121.478ZM138.481 120.057L137.538 119.722L138.481 120.057ZM136.519 120.057L135.577 120.391L136.519 120.057ZM266.967 116.071L267.898 116.435L266.967 116.071ZM265.033 116.071L264.102 116.435L265.033 116.071ZM203.499 126.057L204.455 126.351L203.499 126.057ZM201.501 126.057L202.457 125.763L201.501 126.057ZM324.479 279.323L323.553 278.946L324.479 279.323ZM324.412 279.586L323.419 279.471L324.412 279.586ZM325.406 279.699C333.781 259.085 339 229.643 339 197.002H337C337 229.462 331.805 258.634 323.553 278.946L325.406 279.699ZM339 197.002C339 165.986 334.287 137.862 326.635 117.455C322.81 107.256 318.231 98.9322 313.097 93.1406C307.963 87.3501 302.188 84.0024 296 84.0024V86.0024C301.41 86.0024 306.684 88.9228 311.6 94.4674C316.515 100.011 320.987 108.089 324.762 118.158C332.311 138.287 337 166.163 337 197.002H339ZM296 84.0024C289.991 84.0024 284.371 87.1599 279.35 92.6443C274.331 98.1281 269.833 106.017 266.036 115.706L267.898 116.435C271.643 106.879 276.03 99.2335 280.826 93.9947C285.621 88.7563 290.746 86.0024 296 86.0024V84.0024ZM265.964 115.706C262.167 106.017 257.669 98.1281 252.649 92.6443C247.629 87.1599 242.009 84.0024 236 84.0024V86.0024C241.254 86.0024 246.379 88.7563 251.174 93.9947C255.97 99.2335 260.357 106.879 264.102 116.435L265.964 115.706ZM236 84.0024C229.01 84.0024 222.552 88.2696 216.935 95.5188C211.31 102.779 206.415 113.167 202.543 125.763L204.455 126.351C208.286 113.884 213.092 103.745 218.516 96.7437C223.949 89.7313 229.89 86.0024 236 86.0024V84.0024ZM202.457 125.763C198.585 113.167 193.69 102.779 188.065 95.5188C182.448 88.2696 175.989 84.0024 169 84.0024V86.0024C175.11 86.0024 181.051 89.7313 186.484 96.7437C191.908 103.745 196.714 113.884 200.545 126.351L202.457 125.763ZM169 84.0024C162.586 84.0024 156.617 87.5983 151.342 93.786C146.065 99.9772 141.39 108.864 137.538 119.722L139.423 120.391C143.228 109.663 147.802 101.023 152.864 95.0834C157.93 89.1406 163.393 86.0024 169 86.0024V84.0024ZM137.462 119.722C133.61 108.864 128.935 99.9772 123.658 93.786C118.383 87.5983 112.414 84.0024 106 84.0024V86.0024C111.607 86.0024 117.07 89.1406 122.136 95.0834C127.198 101.023 131.772 109.663 135.577 120.391L137.462 119.722ZM106 84.0024C99.4463 84.0024 93.3576 87.7561 87.998 94.1949C82.634 100.639 77.9017 109.881 74.0394 121.154L75.9314 121.802C79.7491 110.66 84.3826 101.664 89.5351 95.4744C94.692 89.2792 100.271 86.0024 106 86.0024V84.0024ZM73.9606 121.154C70.0983 109.881 65.366 100.639 60.002 94.1949C54.6424 87.7561 48.5537 84.0024 42 84.0024V86.0024C47.7294 86.0024 53.308 89.2792 58.4649 95.4744C63.6174 101.664 68.2509 110.66 72.0686 121.802L73.9606 121.154ZM42 84.0024C35.8123 84.0024 30.0373 87.3501 24.9034 93.1406C19.7686 98.9322 15.19 107.256 11.3652 117.455C3.71271 137.862 -1 165.986 -1 197.002H1C1 166.163 5.68931 138.287 13.2378 118.158C17.0135 108.089 21.4852 100.011 26.4 94.4674C31.3158 88.9228 36.5897 86.0024 42 86.0024V84.0024ZM-1 197.002C-1 221.538 1.94897 244.256 6.9651 262.775C11.9712 281.256 19.0723 295.688 27.4751 303.508L28.8376 302.044C20.8462 294.607 13.869 280.613 8.89553 262.252C3.93205 243.928 1 221.388 1 197.002H-1ZM153.908 364.161C99.3439 357.718 52.7773 333.927 29.0763 302.309L27.476 303.509C51.6012 335.692 98.7478 359.661 153.673 366.148L153.908 364.161ZM323.419 279.471C320.271 306.543 298.206 330.098 266.616 345.726C235.06 361.337 194.202 368.92 153.908 364.161L153.673 366.148C194.344 370.951 235.592 363.305 267.503 347.518C299.381 331.748 322.145 307.738 325.405 279.702L323.419 279.471ZM27.4751 303.508C27.4761 303.509 27.476 303.509 27.4754 303.508C27.4749 303.508 27.475 303.508 27.476 303.509L29.0763 302.309C29.0045 302.214 28.9257 302.126 28.8376 302.044L27.4751 303.508ZM74.0394 121.154C74.0355 121.165 74.0329 121.167 74.0348 121.165C74.0355 121.164 74.0363 121.163 74.0372 121.162C74.0381 121.162 74.0387 121.161 74.0386 121.161C74.0377 121.162 74.0246 121.169 74 121.169C73.9754 121.169 73.9623 121.162 73.9614 121.161C73.9613 121.161 73.9619 121.162 73.9628 121.162C73.9637 121.163 73.9645 121.164 73.9652 121.165C73.9671 121.167 73.9645 121.165 73.9606 121.154L72.0686 121.802C72.6931 123.625 75.3069 123.625 75.9314 121.802L74.0394 121.154ZM137.538 119.722C137.534 119.733 137.532 119.736 137.534 119.733C137.534 119.733 137.535 119.732 137.536 119.731C137.537 119.73 137.537 119.73 137.537 119.73C137.536 119.731 137.524 119.738 137.5 119.738C137.476 119.738 137.464 119.731 137.463 119.73C137.463 119.73 137.463 119.73 137.464 119.731C137.465 119.732 137.466 119.733 137.466 119.733C137.468 119.736 137.466 119.733 137.462 119.722L135.577 120.391C136.213 122.186 138.787 122.186 139.423 120.391L137.538 119.722ZM266.036 115.706C266.032 115.716 266.03 115.718 266.031 115.716C266.032 115.715 266.032 115.715 266.033 115.714C266.033 115.714 266.034 115.713 266.034 115.714C266.032 115.714 266.021 115.72 266 115.72C265.979 115.72 265.968 115.714 265.966 115.714C265.966 115.713 265.967 115.714 265.967 115.714C265.968 115.715 265.968 115.715 265.969 115.716C265.97 115.718 265.968 115.716 265.964 115.706L264.102 116.435C264.773 118.149 267.227 118.149 267.898 116.435L266.036 115.706ZM202.543 125.763C202.539 125.776 202.537 125.778 202.539 125.775C202.54 125.774 202.541 125.772 202.542 125.771C202.543 125.771 202.543 125.771 202.543 125.77C202.544 125.77 202.544 125.77 202.544 125.77C202.543 125.77 202.528 125.779 202.5 125.779C202.472 125.779 202.457 125.77 202.456 125.77C202.456 125.77 202.456 125.77 202.457 125.77C202.457 125.771 202.457 125.771 202.458 125.771C202.459 125.772 202.46 125.774 202.461 125.775C202.463 125.778 202.461 125.776 202.457 125.763L200.545 126.351C201.13 128.255 203.87 128.255 204.455 126.351L202.543 125.763ZM323.553 278.946C323.483 279.116 323.439 279.292 323.419 279.471L325.405 279.702C325.405 279.7 325.406 279.699 325.406 279.699C325.406 279.699 325.406 279.699 325.406 279.699L323.553 278.946Z" fill="#FF0057" mask="url(#path-4-inside-1_135_27)"/>
<defs>
<filter id="filter0_i_135_27" x="0" y="79.0024" width="339" height="287.568" filterUnits="userSpaceOnUse" color-interpolation-filters="sRGB">
<feFlood flood-opacity="0" result="BackgroundImageFix"/>
<feBlend mode="normal" in="SourceGraphic" in2="BackgroundImageFix" result="shape"/>
<feColorMatrix in="SourceAlpha" type="matrix" values="0 0 0 0 0 0 0 0 0 0 0 0 0 0 0 0 0 0 127 0" result="hardAlpha"/>
<feOffset dx="1" dy="-6"/>
<feGaussianBlur stdDeviation="8.65"/>
<feComposite in2="hardAlpha" operator="arithmetic" k2="-1" k3="1"/>
<feColorMatrix type="matrix" values="0 0 0 0 0.996078 0 0 0 0 0.890196 0 0 0 0 0.854902 0 0 0 1 0"/>
<feBlend mode="normal" in2="shape" result="effect1_innerShadow_135_27"/>
</filter>
</defs>
</svg>
