<svg width="269" height="187" viewBox="0 0 269 187" fill="none" xmlns="http://www.w3.org/2000/svg">
<g filter="url(#filter0_i_141_8)">
<path fill-rule="evenodd" clip-rule="evenodd" d="M268.659 48.5C268.659 67 234.409 97 192.159 97C191.345 97 190.532 96.9919 189.719 96.9759C188.937 96.9606 188.37 97.7233 188.61 98.4673C201.582 138.677 183.546 180.483 165.939 186.163C148.893 191.662 111.73 169.915 97.6103 132.033C97.3639 131.372 96.4925 131.206 96.0272 131.736C68.1684 163.5 23.0302 169.468 9.12174 157.269C-4.78668 145.071 -4.75684 99.5395 23.102 67.7758C47.9366 39.4602 85.2205 23.12 107.288 32.4181C110.034 33.5751 113.404 32.7742 115.184 30.3839C128.442 12.5719 160.011 0 192.159 0C234.409 0 268.659 30 268.659 48.5Z" fill="#FDC5D8"/>
</g>
<g filter="url(#filter1_i_141_8)">
<path fill-rule="evenodd" clip-rule="evenodd" d="M229.303 44.4344C227.234 55.6763 203.065 70.0748 177.391 65.3482C175.567 65.0124 173.759 64.6107 171.974 64.1482C167.314 62.9407 162.061 68.5202 163.539 73.1015C171.554 97.9462 160.41 123.778 149.531 127.287C138.652 130.797 114.514 116.347 106.499 91.5024C105.063 87.0498 97.6885 85.6652 94.7342 89.2931C92.4464 92.1025 89.9365 94.7932 87.2361 97.2965C68.0913 115.044 39.9696 115.837 32.1985 107.454C24.4274 99.071 27.3456 71.0899 46.4904 53.3425C65.6352 35.5951 93.4483 28.107 104.7 40.2445C106.072 41.7249 108.833 41.7247 110.034 40.102C112.49 36.7822 115.547 34.3721 119.179 33.2004C121.065 32.5921 123.02 32.3452 125.015 32.4246C128.164 32.55 131.505 29.6349 132.076 26.5348C135.073 10.2578 162.568 1.67748 188.242 6.40407C213.916 11.1307 231.373 33.1924 229.303 44.4344Z" fill="#F0DCF8"/>
</g>
<g filter="url(#filter2_i_141_8)">
<ellipse cx="115.159" cy="28" rx="30.5" ry="28" fill="#FFD382"/>
</g>
<defs>
<filter id="filter0_i_141_8" x="0" y="0" width="268.659" height="191.007" filterUnits="userSpaceOnUse" color-interpolation-filters="sRGB">
<feFlood flood-opacity="0" result="BackgroundImageFix"/>
<feBlend mode="normal" in="SourceGraphic" in2="BackgroundImageFix" result="shape"/>
<feColorMatrix in="SourceAlpha" type="matrix" values="0 0 0 0 0 0 0 0 0 0 0 0 0 0 0 0 0 0 127 0" result="hardAlpha"/>
<feOffset dy="4"/>
<feGaussianBlur stdDeviation="2"/>
<feComposite in2="hardAlpha" operator="arithmetic" k2="-1" k3="1"/>
<feColorMatrix type="matrix" values="0 0 0 0 0.940503 0 0 0 0 0.862262 0 0 0 0 0.974034 0 0 0 1 0"/>
<feBlend mode="normal" in2="shape" result="effect1_innerShadow_141_8"/>
</filter>
<filter id="filter1_i_141_8" x="24.1956" y="5.11157" width="205.274" height="122.697" filterUnits="userSpaceOnUse" color-interpolation-filters="sRGB">
<feFlood flood-opacity="0" result="BackgroundImageFix"/>
<feBlend mode="normal" in="SourceGraphic" in2="BackgroundImageFix" result="shape"/>
<feColorMatrix in="SourceAlpha" type="matrix" values="0 0 0 0 0 0 0 0 0 0 0 0 0 0 0 0 0 0 127 0" result="hardAlpha"/>
<feOffset dx="-4"/>
<feGaussianBlur stdDeviation="2"/>
<feComposite in2="hardAlpha" operator="arithmetic" k2="-1" k3="1"/>
<feColorMatrix type="matrix" values="0 0 0 0 0.854902 0 0 0 0 0.933333 0 0 0 0 0.917647 0 0 0 1 0"/>
<feBlend mode="normal" in2="shape" result="effect1_innerShadow_141_8"/>
</filter>
<filter id="filter2_i_141_8" x="84.6589" y="0" width="61" height="60" filterUnits="userSpaceOnUse" color-interpolation-filters="sRGB">
<feFlood flood-opacity="0" result="BackgroundImageFix"/>
<feBlend mode="normal" in="SourceGraphic" in2="BackgroundImageFix" result="shape"/>
<feColorMatrix in="SourceAlpha" type="matrix" values="0 0 0 0 0 0 0 0 0 0 0 0 0 0 0 0 0 0 127 0" result="hardAlpha"/>
<feOffset dy="4"/>
<feGaussianBlur stdDeviation="2"/>
<feComposite in2="hardAlpha" operator="arithmetic" k2="-1" k3="1"/>
<feColorMatrix type="matrix" values="0 0 0 0 0.854902 0 0 0 0 0.933333 0 0 0 0 0.917647 0 0 0 1 0"/>
<feBlend mode="normal" in2="shape" result="effect1_innerShadow_141_8"/>
</filter>
</defs>
</svg>
