<svg width="144" height="513" viewBox="0 0 144 513" fill="none" xmlns="http://www.w3.org/2000/svg">
<g filter="url(#filter0_i_151_21)">
<ellipse cx="104.149" cy="371.058" rx="9" ry="48.5" transform="rotate(42.014 104.149 371.058)" fill="#A8D29E"/>
</g>
<g filter="url(#filter1_i_151_21)">
<ellipse cx="39.2686" cy="372.954" rx="9" ry="48.5" transform="rotate(-42.2439 39.2686 372.954)" fill="#A8D29E"/>
</g>
<g filter="url(#filter2_i_151_21)">
<rect x="65" y="289" width="10" height="224" rx="5" fill="#A8D29E"/>
</g>
<path d="M85.8075 5.65971C84.3386 5.55341 83.234 4.27644 83.3403 2.80752C83.4466 1.3386 84.7236 0.233986 86.1925 0.34029C87.6614 0.446593 88.766 1.72356 88.6597 3.19248C88.5534 4.6614 87.2764 5.76601 85.8075 5.65971ZM74.5013 154.964L85.5013 2.96391L86.4987 3.03609L75.4987 155.036L74.5013 154.964Z" fill="#FF0057"/>
<path d="M54.1925 5.65971C55.6614 5.55341 56.766 4.27644 56.6597 2.80752C56.5534 1.3386 55.2764 0.233986 53.8075 0.34029C52.3386 0.446593 51.234 1.72356 51.3403 3.19248C51.4466 4.6614 52.7236 5.76601 54.1925 5.65971ZM65.4987 154.964L54.4987 2.96391L53.5013 3.03609L64.5013 155.036L65.4987 154.964Z" fill="#FF0057"/>
<g filter="url(#filter3_i_151_21)">
<path fill-rule="evenodd" clip-rule="evenodd" d="M36 57C26.6111 57 19 64.6111 19 74V227V233C19 234.211 19.1267 235.393 19.3675 236.532C22.406 275.668 43.9163 306 70 306C96.0837 306 117.594 275.668 120.633 236.532C120.873 235.393 121 234.211 121 233V227V74C121 64.6111 113.389 57 104 57C94.6111 57 87 64.6111 87 74C87 64.6111 79.3889 57 70 57C60.6111 57 53 64.6111 53 74C53 64.6111 45.3889 57 36 57Z" fill="#FDC5D8"/>
</g>
<defs>
<filter id="filter0_i_151_21" x="70.9988" y="328.518" width="67.2996" height="79.0806" filterUnits="userSpaceOnUse" color-interpolation-filters="sRGB">
<feFlood flood-opacity="0" result="BackgroundImageFix"/>
<feBlend mode="normal" in="SourceGraphic" in2="BackgroundImageFix" result="shape"/>
<feColorMatrix in="SourceAlpha" type="matrix" values="0 0 0 0 0 0 0 0 0 0 0 0 0 0 0 0 0 0 127 0" result="hardAlpha"/>
<feOffset dx="1" dy="-6"/>
<feGaussianBlur stdDeviation="8.65"/>
<feComposite in2="hardAlpha" operator="arithmetic" k2="-1" k3="1"/>
<feColorMatrix type="matrix" values="0 0 0 0 0.996078 0 0 0 0 0.890196 0 0 0 0 0.854902 0 0 0 1 0"/>
<feBlend mode="normal" in2="shape" result="effect1_innerShadow_151_21"/>
</filter>
<filter id="filter1_i_151_21" x="5.98218" y="330.539" width="67.5728" height="78.832" filterUnits="userSpaceOnUse" color-interpolation-filters="sRGB">
<feFlood flood-opacity="0" result="BackgroundImageFix"/>
<feBlend mode="normal" in="SourceGraphic" in2="BackgroundImageFix" result="shape"/>
<feColorMatrix in="SourceAlpha" type="matrix" values="0 0 0 0 0 0 0 0 0 0 0 0 0 0 0 0 0 0 127 0" result="hardAlpha"/>
<feOffset dx="1" dy="-6"/>
<feGaussianBlur stdDeviation="8.65"/>
<feComposite in2="hardAlpha" operator="arithmetic" k2="-1" k3="1"/>
<feColorMatrix type="matrix" values="0 0 0 0 0.996078 0 0 0 0 0.890196 0 0 0 0 0.854902 0 0 0 1 0"/>
<feBlend mode="normal" in2="shape" result="effect1_innerShadow_151_21"/>
</filter>
<filter id="filter2_i_151_21" x="65" y="283" width="11" height="230" filterUnits="userSpaceOnUse" color-interpolation-filters="sRGB">
<feFlood flood-opacity="0" result="BackgroundImageFix"/>
<feBlend mode="normal" in="SourceGraphic" in2="BackgroundImageFix" result="shape"/>
<feColorMatrix in="SourceAlpha" type="matrix" values="0 0 0 0 0 0 0 0 0 0 0 0 0 0 0 0 0 0 127 0" result="hardAlpha"/>
<feOffset dx="1" dy="-6"/>
<feGaussianBlur stdDeviation="8.65"/>
<feComposite in2="hardAlpha" operator="arithmetic" k2="-1" k3="1"/>
<feColorMatrix type="matrix" values="0 0 0 0 0.996078 0 0 0 0 0.890196 0 0 0 0 0.854902 0 0 0 1 0"/>
<feBlend mode="normal" in2="shape" result="effect1_innerShadow_151_21"/>
</filter>
<filter id="filter3_i_151_21" x="19" y="51" width="103" height="255" filterUnits="userSpaceOnUse" color-interpolation-filters="sRGB">
<feFlood flood-opacity="0" result="BackgroundImageFix"/>
<feBlend mode="normal" in="SourceGraphic" in2="BackgroundImageFix" result="shape"/>
<feColorMatrix in="SourceAlpha" type="matrix" values="0 0 0 0 0 0 0 0 0 0 0 0 0 0 0 0 0 0 127 0" result="hardAlpha"/>
<feOffset dx="1" dy="-6"/>
<feGaussianBlur stdDeviation="8.65"/>
<feComposite in2="hardAlpha" operator="arithmetic" k2="-1" k3="1"/>
<feColorMatrix type="matrix" values="0 0 0 0 0.996078 0 0 0 0 0.890196 0 0 0 0 0.854902 0 0 0 1 0"/>
<feBlend mode="normal" in2="shape" result="effect1_innerShadow_151_21"/>
</filter>
</defs>
</svg>
