<svg width="124" height="437" viewBox="0 0 124 437" fill="none" xmlns="http://www.w3.org/2000/svg">
<g filter="url(#filter0_i_141_37)">
<path fill-rule="evenodd" clip-rule="evenodd" d="M61.0205 53.5173C61.0468 52.5201 61.8092 51.7028 62.7945 51.5466C77.1459 49.2707 88 38.6984 88 26C88 11.6406 74.1208 0 57 0C39.8792 0 26 11.6406 26 26C26 39.076 37.5091 49.8975 52.4947 51.7274C52.5509 51.7343 52.5942 51.7807 52.5979 51.8371C52.7267 53.7731 52.841 55.729 52.9415 57.7039C53.0338 59.5182 50.6428 60.6755 48.964 59.9814C47.4345 59.349 45.758 59 44 59C36.8203 59 31 64.8203 31 72C31 79.1797 36.8203 85 44 85C45.9402 85 47.7812 84.575 49.4348 83.8129C51.083 83.0534 53.5142 84.1131 53.5013 85.9278C53.4326 95.559 53.1306 105.493 52.6451 115.644C52.5494 117.644 49.3221 118.632 47.6921 117.468C44.6583 115.303 40.7566 114 36.5 114C26.835 114 19 120.716 19 129C19 137.284 26.835 144 36.5 144C40.0864 144 43.4208 143.075 46.1964 141.489C47.9433 140.49 51.048 141.856 50.8988 143.863C50.0638 155.098 49.0698 166.493 47.9781 177.945C47.7848 179.972 44.5027 180.725 43.0583 179.289C38.5655 174.826 31.9177 172 24.5 172C10.969 172 0 181.402 0 193C0 204.598 10.969 214 24.5 214C30.3848 214 35.7849 212.222 40.0089 209.258C41.6869 208.08 44.7813 209.461 44.5637 211.499C43.5075 221.391 42.4231 231.247 41.3499 241.002C41.3483 241.016 41.3467 241.031 41.3451 241.046C41.2094 242.279 39.9951 243.089 38.7824 242.826C36.2956 242.287 33.6878 242 31 242C13.8792 242 0 253.641 0 268C0 282.359 13.8792 294 31 294C31.7583 294 32.5103 293.977 33.255 293.932C34.5383 293.855 35.6345 294.932 35.5107 296.212C26.5241 389.102 26.6802 457.732 77.8579 430.449C82.9411 427.739 88.4997 429.786 93.7115 431.706C104.321 435.613 113.493 438.991 114.292 400.638C114.732 379.517 106.804 347.167 96.9265 306.86C94.8608 298.43 92.7097 289.653 90.5321 280.557C90.2152 279.233 91.2874 277.986 92.6486 277.998C92.7656 277.999 92.8827 278 93 278C110.121 278 124 266.359 124 252C124 237.641 110.121 226 93 226C88.8243 226 84.8414 226.692 81.2057 227.948C80.0092 228.361 78.6812 227.67 78.4287 226.429C77.9741 224.195 77.5234 221.949 77.0774 219.69C76.7723 218.145 78.3081 216.845 79.8388 217.215C81.9568 217.726 84.1911 218 86.5 218C100.031 218 111 208.598 111 197C111 185.402 100.031 176 86.5 176C81.5232 176 76.893 177.272 73.0276 179.457C71.7098 180.202 69.9456 179.484 69.7152 177.987C68.3701 169.252 67.1358 160.379 66.0424 151.382C65.8811 150.054 67.0505 148.949 68.3868 148.99C68.5903 148.997 68.7947 149 69 149C78.3888 149 86 142.284 86 134C86 125.716 78.3888 119 69 119C67.7543 119 66.5398 119.118 65.3703 119.343C64.0891 119.589 62.7852 118.736 62.6873 117.435C61.9127 107.142 61.3574 96.7209 61.0625 86.1926C61.0125 84.4062 63.3326 83.3052 64.9809 83.9957C66.5252 84.6426 68.2209 85 70 85C77.1797 85 83 79.1797 83 72C83 64.8203 77.1797 59 70 59C68.1748 59 66.4375 59.3761 64.8613 60.0551C63.2198 60.7623 60.8886 59.6841 60.922 57.8971C60.9493 56.4388 60.9821 54.9789 61.0205 53.5173Z" fill="#8FCEC1"/>
</g>
<defs>
<filter id="filter0_i_141_37" x="0" y="-6" width="125" height="442.494" filterUnits="userSpaceOnUse" color-interpolation-filters="sRGB">
<feFlood flood-opacity="0" result="BackgroundImageFix"/>
<feBlend mode="normal" in="SourceGraphic" in2="BackgroundImageFix" result="shape"/>
<feColorMatrix in="SourceAlpha" type="matrix" values="0 0 0 0 0 0 0 0 0 0 0 0 0 0 0 0 0 0 127 0" result="hardAlpha"/>
<feOffset dx="1" dy="-6"/>
<feGaussianBlur stdDeviation="8.65"/>
<feComposite in2="hardAlpha" operator="arithmetic" k2="-1" k3="1"/>
<feColorMatrix type="matrix" values="0 0 0 0 0.996078 0 0 0 0 0.890196 0 0 0 0 0.854902 0 0 0 1 0"/>
<feBlend mode="normal" in2="shape" result="effect1_innerShadow_141_37"/>
</filter>
</defs>
</svg>
